<svg xmlns="http://www.w3.org/2000/svg" viewBox="0 0 512 512" role="img" aria-label="Quran Radio">
  <rect width="512" height="512" rx="112" fill="#000000"/>
  <g transform="translate(97.28,97.28) scale(0.31)" fill="#7FE03C">
    <path d="M554.3,474.7c0,-6.4 1.6,-15 4.8,-25.7 3.2,-10.7 7.6,-25.3 13.2,-43.7 3,-10.3 7.5,-17.6 13.5,-21.9 6,-4.5 12.4,-6.8 19.3,-6.8 6.4,0 12.9,1.9 19.3,5.8 6.6,3.6 11.6,9 14.8,16.1 6.4,14.6 11,29.8 13.8,45.7 3,15.9 4.5,31.8 4.5,47.9 0,22.3 -2.4,44.9 -7.1,67.9 -4.5,22.7 -11.2,44.7 -19.9,65.9 -8.6,21 -19.1,40.9 -31.5,59.5 -12.4,18.4 -26.5,34.4 -42.1,47.9 -15.4,13.7 -32.4,24.6 -50.8,32.5 -18.4,7.9 -38,11.9 -58.5,11.9 -18.4,0 -34.4,-3.5 -47.9,-10.6 -13.5,-7.1 -24.8,-16.4 -33.8,-28 -9,-11.6 -15.8,-24.9 -20.3,-39.9 -4.3,-15 -6.4,-30.5 -6.4,-46.3 0,-11.8 0.6,-23.3 1.9,-34.4 1.5,-11.4 3.5,-22.6 6.1,-33.8 2.8,-11.2 6.2,-22.4 10.3,-33.8 4.3,-11.6 9.2,-23.6 14.8,-36 1.9,-4.3 4,-8.4 6.1,-12.2 2.4,-3.9 4.6,-7.2 6.8,-10 2.1,-3 4.1,-5.4 5.8,-7.1 1.9,-1.7 3.5,-2.6 4.8,-2.6 1.5,0 2.3,1.4 2.3,4.2 0,2.4 -0.8,6.1 -2.3,11.3 -1.3,5.1 -3.6,11.8 -7.1,19.9 -5.8,14.8 -10.6,29.6 -14.5,44.4 -3.9,14.8 -5.8,29.9 -5.8,45.4 0,13.3 2,25.5 6.1,36.7 4.3,10.9 10.3,20.4 18,28.3 7.7,7.9 17.2,14 28.3,18.3 11.2,4.5 23.7,6.8 37.6,6.8 23.4,0 45.4,-4.2 65.9,-12.5 20.8,-8.6 38.9,-20.2 54.4,-34.7 15.4,-14.8 27.6,-32.1 36.4,-51.8 9,-19.9 13.5,-41.4 13.5,-64.3 0,-7.5 -0.5,-14.3 -1.6,-20.3 -1.1,-6.2 -2.8,-10.8 -5.1,-13.8 -3.6,3 -7.8,5.5 -12.5,7.4 -4.7,1.9 -9.5,2.9 -14.5,2.9 -4.9,0 -9.9,-0.9 -14.8,-2.6 -4.7,-1.7 -9,-4.2 -12.9,-7.4 -3.9,-3.2 -7,-7 -9.3,-11.3 -2.4,-4.5 -3.5,-9.5 -3.5,-15.1z" />
    <path d="M511.8,310.3c6.4,-8.1 13.2,-16.5 20.3,-25.1 7.3,-8.6 13.7,-16.2 19.3,-22.8 1.1,-1.1 1.9,-1.6 2.6,-1.6 0.9,0 2.4,0.8 4.5,2.3 5.6,3.9 11.9,8.6 19,14.2 7.3,5.4 14,10.4 20.3,15.1 6.2,-7.5 12.5,-15.2 19,-23.2 6.4,-7.9 12.3,-15 17.7,-21.2 1.1,-1.1 1.9,-1.6 2.6,-1.6 0.9,0 2.4,0.8 4.5,2.3 5.6,3.9 11.9,8.5 19,13.8 7.3,5.1 14,10.1 20.3,14.8 1.1,1.1 2,1.9 2.9,2.6 0.9,0.6 1.3,1.4 1.3,2.3 0,0.6 -0.6,1.8 -1.9,3.5l-38.9,47c-0.4,0.6 -1.1,1.4 -1.9,2.3 -0.6,0.6 -1.2,1 -1.6,1 -0.9,0 -2.1,-0.5 -3.9,-1.6 -6,-4.1 -12.7,-8.8 -19.9,-14.2 -7.1,-5.6 -13.7,-11.2 -19.9,-16.7l-36.4,43.7c-0.4,0.6 -1.1,1.4 -1.9,2.3 -0.6,0.6 -1.2,1 -1.6,1 -0.9,0 -2.1,-0.5 -3.9,-1.6 -6,-4.1 -12.7,-8.9 -19.9,-14.5 -7.1,-5.8 -13.7,-11.5 -19.9,-17 -2.1,-1.7 -3.2,-3 -3.2,-3.9 0,-0.4 0.2,-0.9 0.6,-1.3 0.4,-0.6 0.9,-1.2 1.3,-1.6z" />
  </g>
</svg>
